Coordinates
version=1
nRows=24
nColumns=24
inDegrees=yes

Units are S.I. units (second, meters, Newtons, ...)
Angles are in degrees.

endheader
time	pelvis_tilt	pelvis_list	pelvis_rotation	pelvis_tx	pelvis_ty	pelvis_tz	hip_flexion_r	hip_adduction_r	hip_rotation_r	knee_angle_r	ankle_angle_r	subtalar_angle_r	mtp_angle_r	hip_flexion_l	hip_adduction_l	hip_rotation_l	knee_angle_l	ankle_angle_l	subtalar_angle_l	mtp_angle_l	lumbar_extension	lumbar_bending	lumbar_rotation
      4.04500000	     -9.16410103	      9.07404174	     -7.16954197	     -2.70875623	     -0.01998778	      0.45216179	     17.69923043	    -10.59437701	      3.13595888	    -63.20970915	    -29.41635549	    -26.99451142	     -2.43771391	     21.11906198	     10.38280171	     -0.99129200	    -16.24871495	     -4.93998140	     -3.40963771	      5.00459287	      8.94458862	     -8.22249824	      8.25335514
      4.05000000	     -9.22398326	      8.79626005	     -6.98241385	     -2.70345039	     -0.01922109	      0.45120064	     18.52979750	    -10.19425009	      3.01345083	    -63.76511371	    -28.97132446	    -27.57140252	     -2.88134959	     20.63114280	     10.27368272	     -0.66810795	    -16.03867196	     -4.60501581	     -3.27026413	      4.95973357	      8.88525472	     -7.91521385	      7.79736614
      4.05500000	     -9.19389357	      8.52514987	     -6.94450919	     -2.69820632	     -0.01831547	      0.45042678	     19.28640784	     -9.75108509	      3.08062485	    -64.19597261	    -28.48475358	    -27.87362282	     -2.84279613	     20.03190633	     10.13000980	     -0.45532252	    -15.75882442	     -4.38455658	     -3.22233259	      4.98552484	      8.74741786	     -7.59929477	      7.49762594
      4.06000000	     -9.21476743	      8.11306302	     -6.72944113	     -2.69295621	     -0.01741633	      0.44952072	     19.98366713	     -9.21793619	      2.89091747	    -64.47374402	    -27.88678393	    -27.98088827	     -2.75181912	     19.50136717	      9.88158439	     -0.12124753	    -15.57030143	     -4.06221059	     -3.07698833	      5.07331431	      8.62781444	     -7.17420462	      7.00577591
      4.06500000	     -9.23948309	      7.69188743	     -6.56503052	     -2.68774597	     -0.01649875	      0.44868619	     20.68500893	     -8.65127553	      2.76388747	    -64.64203359	    -27.30414868	    -27.94215245	     -2.41193811	     18.96630871	      9.60660009	      0.24144850	    -15.35822114	     -3.79952709	     -3.01938470	      5.08044092	      8.51937409	     -6.72831780	      6.57009823
      4.07000000	     -9.28245481	      7.22975872	     -6.37334818	     -2.68256356	     -0.01558128	      0.44784190	     21.36940931	     -8.04941040	      2.60377172	    -64.68490789	    -26.69531246	    -27.75053742	     -1.80457962	     18.45260275	      9.29224649	      0.66476258	    -15.15862147	     -3.56118346	     -3.00072418	      5.04787790	      8.42530871	     -6.24465641	      6.10778074
      4.07500000	     -9.33328600	      6.74916223	     -6.17414558	     -2.67739921	     -0.01468873	      0.44697809	     22.04502438	     -7.43749591	      2.42996608	    -64.62456597	    -26.09267322	    -27.43107544	     -0.98626294	     17.94529537	      8.95966471	      1.13040294	    -14.95568523	     -3.32457260	     -3.03163477	      4.97833008	      8.34101516	     -5.73773679	      5.63714608
      4.08000000	     -9.39055646	      6.26055067	     -5.96962164	     -2.67225925	     -0.01382093	      0.44613952	     22.71121449	     -6.82112762	      2.24256000	    -64.46700524	    -25.48384929	    -27.03311174	     -0.05297527	     17.44613867	      8.61242809	      1.61272751	    -14.74900186	     -3.10679614	     -3.08551190	      4.88218831	      8.26572538	     -5.22618505	      5.16820127
      4.08500000	     -9.43767705	      5.78630778	     -5.77427188	     -2.66718976	     -0.01299264	      0.44533755	     23.36643670	     -6.21728617	      2.07398114	    -64.23072642	    -24.87446448	    -26.58087625	      1.01188379	     16.94383462	      8.27186530	      2.10507679	    -14.54078542	     -2.90531806	     -3.16714824	      4.74875950	      8.17934249	     -4.73491839	      4.70070202
      4.09000000	     -9.51146745	      5.31152860	     -5.52601700	     -2.66202225	     -0.01220904	      0.44450185	     24.01916725	     -5.65392787	      1.79936931	    -63.91030562	    -24.24049596	    -26.07355116	      1.90567881	     16.45356138	      7.92881292	      2.56878086	    -14.29623552	     -2.70251383	     -3.18048320	      4.67565377	      8.14206494	     -4.24655051	      4.20980197
      4.09500000	     -9.57153118	      4.87386655	     -5.27318249	     -2.65689167	     -0.01148974	      0.44370401	     24.66051686	     -5.13982592	      1.52232987	    -63.53456188	    -23.57730525	    -25.52410059	      2.79857368	     15.95154358	      7.61518429	      3.02134892	    -14.03637418	     -2.50328469	     -3.18344083	      4.60912519	      8.09396135	     -3.80683576	      3.71189270
      4.10000000	     -9.59627339	      4.49470462	     -5.05422909	     -2.65177376	     -0.01081153	      0.44295902	     25.27328591	     -4.68377294	      1.30003846	    -63.09716763	    -22.92987312	    -24.97990522	      3.81926792	     15.39916231	      7.34910401	      3.43655544	    -13.73003436	     -2.33211851	     -3.21382876	      4.49830983	      8.01936200	     -3.42718275	      3.25802287
      4.10500000	     -9.66790663	      4.12562642	     -4.74064113	     -2.64663521	     -0.01025376	      0.44217349	     25.91669116	     -4.29108318	      0.93518968	    -62.61975149	    -22.27294064	    -24.48149372	      4.46216149	     14.90647685	      7.08944894	      3.82403458	    -13.42323785	     -2.10760180	     -3.07062139	      4.56351855	      8.00065052	     -3.07512207	      2.71065909
      4.11000000	     -9.71004322	      3.81130770	     -4.44482350	     -2.64148401	     -0.00974735	      0.44143468	     26.53112581	     -3.96504714	      0.59167250	    -62.09154979	    -21.58967410	    -23.97135741	      5.11445881	     14.37000560	      6.87399733	      4.16317795	    -13.07382967	     -1.89945309	     -2.92372271	      4.62330194	      7.96342023	     -2.78512736	      2.19925357
      4.11500000	     -9.76955176	      3.51712926	     -4.19493351	     -2.63632428	     -0.00933418	      0.44081533	     27.17458533	     -3.63315750	      0.29900593	    -61.52918964	    -21.01418674	    -23.54323718	      5.59601592	     13.82782070	      6.64924900	      4.48248911	    -12.67091302	     -1.66449523	     -2.75242660	      4.70994420	      7.95347849	     -2.51189545	      1.74593341
      4.12000000	     -9.79394544	      3.30490153	     -3.82638930	     -2.63116940	     -0.00897083	      0.44006447	     27.75913494	     -3.47961163	     -0.10918182	    -60.91536881	    -20.32967162	    -23.07684201	      6.15112949	     13.26494542	      6.53083085	      4.79571264	    -12.27131753	     -1.44869614	     -2.45785935	      4.85354767	      7.90862335	     -2.35318344	      1.16198235
      4.12500000	     -9.81337274	      3.11702516	     -3.50646921	     -2.62600165	     -0.00867416	      0.43939918	     28.33922007	     -3.34059732	     -0.48634958	    -60.25435416	    -19.70305756	    -22.68682470	      6.58950158	     12.68594728	      6.41592671	      5.05270539	    -11.84423891	     -1.22811716	     -2.17654446	      4.99021775	      7.86995201	     -2.21515084	      0.65555866
      4.13000000	     -9.83100468	      2.96265883	     -3.16478879	     -2.62084854	     -0.00844624	      0.43871837	     28.90756661	     -3.25829092	     -0.87663687	    -59.54916735	    -19.09978036	    -22.34076262	      6.94739774	     12.10761493	      6.33248396	      5.29978152	    -11.40941924	     -1.00481688	     -1.85438674	      5.14325623	      7.82753280	     -2.11101931	      0.13775299
      4.13500000	     -9.84403628	      2.82616631	     -2.82996287	     -2.61569189	     -0.00827355	      0.43809290	     29.45816616	     -3.20616581	     -1.28157482	    -58.79129189	    -18.52061948	    -22.03169695	      7.21952748	     11.52881725	      6.25715535	      5.51726745	    -10.97826112	     -0.78108138	     -1.53103508	      5.28941200	      7.78430153	     -2.03674449	     -0.35897836
      4.14000000	     -9.86911820	      2.70199543	     -2.50146800	     -2.61054909	     -0.00817295	      0.43746860	     30.00960032	     -3.16943409	     -1.66890866	    -57.98413996	    -17.98906344	    -21.75483906	      7.40839459	     10.96263436	      6.18752655	      5.76024110	    -10.54460289	     -0.54815900	     -1.20416048	      5.42783655	      7.75393691	     -1.96636129	     -0.84148095
      4.14500000	     -9.89090198	      2.59014385	     -2.16843589	     -2.60540670	     -0.00811329	      0.43687825	     30.53576187	     -3.16199948	     -2.07951020	    -57.11588768	    -17.47498353	    -21.49407455	      7.53380397	     10.40582700	      6.12684490	      5.98055785	    -10.13112733	     -0.32879036	     -0.89528791	      5.54267889	      7.72079141	     -1.91787549	     -1.31807375
      4.15000000	     -9.91729717	      2.47641766	     -1.84022608	     -2.60028269	     -0.00810481	      0.43631106	     31.04570408	     -3.15818156	     -2.49067968	    -56.18693980	    -16.98794097	    -21.23536309	      7.60419188	      9.86278083	      6.05944479	      6.21850388	     -9.73311661	     -0.10995627	     -0.61674986	      5.63250323	      7.68892349	     -1.86848753	     -1.77309777
      4.15500000	     -9.94324917	      2.36403554	     -1.50877666	     -2.59515041	     -0.00813197	      0.43575678	     31.52605020	     -3.16876742	     -2.91623058	    -55.18881482	    -16.51559950	    -20.96425359	      7.63625979	      9.33143535	      5.99229702	      6.46946695	     -9.36065998	      0.10081833	     -0.37473110	      5.69414034	      7.65836971	     -1.82112663	     -2.22393106
      4.16000000	     -9.92711141	      2.27560489	     -1.15876712	     -2.59005146	     -0.00815599	      0.43520645	     31.93753584	     -3.22835100	     -3.36821563	    -54.13606997	    -16.01598540	    -20.63967063	      7.59549977	      8.77052955	      5.95346078	      6.74165653	     -9.01509119	      0.29052508	     -0.16862537	      5.69795833	      7.57521037	     -1.80754344	     -2.68084170
